<svg width="40" height="40" viewBox="0 0 40 40" fill="none" xmlns="http://www.w3.org/2000/svg">
<circle cx="20" cy="20" r="20" fill="#C4C4C4"/>
<path d="M15.9423 35.8618C17.025 34.3581 17.8721 30.6989 17.9724 29.2453L23.1228 27.0272L25.2656 35.8618H15.9423Z" fill="#FC909F" stroke="black" stroke-width="0.300752"/>
<mask id="mask0" mask-type="alpha" maskUnits="userSpaceOnUse" x="15" y="27" width="11" height="9">
<path d="M15.9426 35.8617C17.0253 34.358 17.8724 30.6988 17.9726 29.2452L23.123 27.0271L25.2659 35.8617H15.9426Z" fill="#FFEDEF"/>
</mask>
<g mask="url(#mask0)">
<ellipse rx="4.43609" ry="4.06015" transform="matrix(-1 0 0 1 18.1953 26.8797)" fill="black"/>
</g>
<g clip-path="url(#clip0)">
<path d="M15.9399 35.1128C17.0226 33.609 17.8697 30.7017 17.97 29.2481L23.1203 27.03L25.2632 35.1128H15.9399Z" fill="#77311D" stroke="black" stroke-width="0.300752"/>
<mask id="mask1" mask-type="alpha" maskUnits="userSpaceOnUse" x="-429" y="27" width="455" height="431">
<path d="M-428.968 457.452C-376.219 384.189 -334.947 205.916 -330.063 135.095L-79.1368 27.03L25.2632 457.452H-428.968Z" fill="#AC6651"/>
</mask>
<g mask="url(#mask1)">
<g style="mix-blend-mode:multiply">
<ellipse rx="4.43609" ry="4.06015" transform="matrix(-1 0 0 1 18.1957 26.8796)" fill="black"/>
</g>
</g>
<mask id="path-8-inside-1" fill="white">
<path fill-rule="evenodd" clip-rule="evenodd" d="M13.7011 22.4022C13.7004 22.4052 13.6996 22.4082 13.6989 22.4112C13.6982 22.4142 13.6975 22.4171 13.6968 22.4201L13.6733 22.5182L13.6743 22.5185C12.9912 25.6213 14.9175 28.7123 18.0203 29.4557C21.1231 30.1991 24.2409 28.3167 25.0381 25.2412L25.0391 25.2414L25.0648 25.1343L26.3076 19.9473L26.3167 19.9092L26.3165 19.9092C27.0439 16.7832 25.1121 13.6517 21.9862 12.9028C18.8603 12.1538 15.7192 14.0699 14.9509 17.1861L14.9508 17.1861L14.9445 17.2126C14.9435 17.2164 14.9426 17.2203 14.9417 17.2241C14.9408 17.228 14.9398 17.2318 14.9389 17.2357L13.7011 22.4022Z"/>
</mask>
<path fill-rule="evenodd" clip-rule="evenodd" d="M13.7011 22.4022C13.7004 22.4052 13.6996 22.4082 13.6989 22.4112C13.6982 22.4142 13.6975 22.4171 13.6968 22.4201L13.6733 22.5182L13.6743 22.5185C12.9912 25.6213 14.9175 28.7123 18.0203 29.4557C21.1231 30.1991 24.2409 28.3167 25.0381 25.2412L25.0391 25.2414L25.0648 25.1343L26.3076 19.9473L26.3167 19.9092L26.3165 19.9092C27.0439 16.7832 25.1121 13.6517 21.9862 12.9028C18.8603 12.1538 15.7192 14.0699 14.9509 17.1861L14.9508 17.1861L14.9445 17.2126C14.9435 17.2164 14.9426 17.2203 14.9417 17.2241C14.9408 17.228 14.9398 17.2318 14.9389 17.2357L13.7011 22.4022Z" fill="#77311D"/>
<path d="M13.6989 22.4112L13.9914 22.4812L13.9914 22.4812L13.6989 22.4112ZM13.7011 22.4022L13.9936 22.4722L13.9934 22.4727L13.7011 22.4022ZM13.6968 22.4201L13.9894 22.4898L13.9893 22.4902L13.6968 22.4201ZM13.6733 22.5182L13.6031 22.8107L13.3108 22.7405L13.3808 22.4482L13.6733 22.5182ZM13.6743 22.5185L13.7445 22.226L14.0314 22.2949L13.968 22.5831L13.6743 22.5185ZM18.0203 29.4557L17.9502 29.7481L18.0203 29.4557ZM25.0381 25.2412L24.747 25.1657L24.8211 24.88L25.1081 24.9487L25.0381 25.2412ZM25.0391 25.2414L25.3316 25.3115L25.2616 25.6039L24.9692 25.5339L25.0391 25.2414ZM25.0648 25.1343L24.7723 25.0643L24.7723 25.0642L25.0648 25.1343ZM26.3076 19.9473L26.0151 19.8772L26.0151 19.8771L26.3076 19.9473ZM26.3167 19.9092L26.3864 19.6167L26.6794 19.6865L26.6091 19.9794L26.3167 19.9092ZM26.3165 19.9092L26.2468 20.2018L25.9558 20.1324L26.0236 19.841L26.3165 19.9092ZM21.9862 12.9028L21.9161 13.1952L21.9862 12.9028ZM14.9509 17.1861L15.2429 17.2581L15.1714 17.5482L14.8809 17.4786L14.9509 17.1861ZM14.9508 17.1861L14.6583 17.116L14.7284 16.8235L15.0209 16.8936L14.9508 17.1861ZM14.9445 17.2126L15.2369 17.2827L15.2368 17.2833L14.9445 17.2126ZM14.9417 17.2241L14.6492 17.1541L14.6492 17.1541L14.9417 17.2241ZM14.9389 17.2357L15.2315 17.3052L15.2314 17.3057L14.9389 17.2357ZM13.4064 22.3411C13.4072 22.338 13.408 22.3348 13.4087 22.3316L13.9934 22.4727C13.9928 22.4755 13.9921 22.4784 13.9914 22.4812L13.4064 22.3411ZM13.4042 22.3505C13.4049 22.3474 13.4057 22.3442 13.4065 22.3411L13.9914 22.4812C13.9907 22.4841 13.99 22.4869 13.9894 22.4898L13.4042 22.3505ZM13.9893 22.4902L13.9657 22.5883L13.3808 22.4482L13.4043 22.3501L13.9893 22.4902ZM13.7435 22.2258L13.7445 22.226L13.6041 22.8109L13.6031 22.8107L13.7435 22.2258ZM17.9502 29.7481C14.6877 28.9665 12.6623 25.7165 13.3805 22.4538L13.968 22.5831C13.3201 25.5262 15.1472 28.4581 18.0904 29.1632L17.9502 29.7481ZM25.3293 25.3166C24.491 28.5505 21.2127 30.5298 17.9502 29.7481L18.0903 29.1632C21.0335 29.8683 23.9908 28.0828 24.747 25.1657L25.3293 25.3166ZM25.1081 24.9487L25.1091 24.9489L24.9692 25.5339L24.9682 25.5337L25.1081 24.9487ZM24.7467 25.1714L24.7723 25.0643L25.3573 25.2044L25.3316 25.3115L24.7467 25.1714ZM24.7723 25.0642L26.0151 19.8772L26.6 20.0174L25.3573 25.2044L24.7723 25.0642ZM26.0151 19.8771L26.0242 19.8391L26.6091 19.9794L26.6 20.0174L26.0151 19.8771ZM26.2469 20.2018L26.2468 20.2018L26.3863 19.6166L26.3864 19.6167L26.2469 20.2018ZM22.0563 12.6103C25.3431 13.3978 27.3742 16.6904 26.6095 19.9774L26.0236 19.841C26.7135 16.876 24.8811 13.9056 21.9161 13.1952L22.0563 12.6103ZM14.6589 17.1141C15.4667 13.8375 18.7695 11.8228 22.0563 12.6103L21.9161 13.1952C18.9511 12.4849 15.9716 14.3023 15.2429 17.2581L14.6589 17.1141ZM14.8809 17.4786L14.8808 17.4786L15.0209 16.8936L15.021 16.8936L14.8809 17.4786ZM15.2433 17.2561L15.2369 17.2827L14.652 17.1425L14.6583 17.116L15.2433 17.2561ZM14.6492 17.1541C14.6502 17.15 14.6512 17.146 14.6521 17.1419L15.2368 17.2833C15.2359 17.2869 15.235 17.2905 15.2342 17.2942L14.6492 17.1541ZM14.6463 17.1662C14.6473 17.1621 14.6482 17.1581 14.6492 17.1541L15.2342 17.2942C15.2333 17.2978 15.2324 17.3015 15.2315 17.3052L14.6463 17.1662ZM15.2314 17.3057L13.9936 22.4722L13.4086 22.3321L14.6465 17.1656L15.2314 17.3057Z" fill="black" mask="url(#path-8-inside-1)"/>
</g>
<path d="M19.323 14.3984C18.2202 14.3483 16.2854 13.7368 17.3681 11.6917" stroke="black" stroke-width="0.300752"/>
<path d="M21.2778 14.248C20.1751 14.1979 18.2402 13.5864 19.3229 11.5413" stroke="black" stroke-width="0.300752"/>
<path d="M23.9846 15.0751C22.8819 15.0249 20.947 14.4134 22.0297 12.3683" stroke="black" stroke-width="0.300752"/>
<path d="M15.991 35.5103C16.0278 35.5081 16.0583 35.5058 16.0824 35.5039C16.5449 34.798 16.9663 33.6334 17.2927 32.4371C17.6102 31.274 17.833 30.0994 17.9168 29.3236C15.1294 28.5177 13.3822 25.6408 13.8022 22.6725C13.8028 22.6671 13.8034 22.6633 13.8034 22.6632L13.8057 22.6483C13.8074 22.6375 13.81 22.6231 13.8132 22.6056C13.8195 22.5704 13.8289 22.5209 13.8412 22.4587C13.8656 22.3344 13.9014 22.1589 13.9473 21.9464C14.039 21.5215 14.171 20.9477 14.332 20.3391C14.4929 19.7308 14.6834 19.0857 14.8924 18.5188C15.0999 17.956 15.3308 17.4554 15.5772 17.1474L15.5995 17.1196L15.6322 17.1054C15.7775 17.0423 15.9284 16.9721 16.0858 16.8988C16.8325 16.5511 17.728 16.1342 18.8876 16.0883C20.2993 16.0325 22.087 16.5226 24.5035 18.2752L24.6556 18.3855L24.5093 18.5034C23.3118 19.4684 23.0529 20.7483 23.1083 21.8348C23.1505 22.6641 23.3752 23.3695 23.5019 23.7221C23.5893 23.5945 23.6449 23.4341 23.6867 23.2458C23.7156 23.1156 23.7367 22.9784 23.7587 22.8348L23.7622 22.812C23.7853 22.6621 23.8099 22.5057 23.8457 22.3546C23.9173 22.053 24.0383 21.7516 24.3068 21.5382C24.5759 21.3242 24.9682 21.2182 25.5394 21.2501L25.7068 21.2595L25.6719 21.4235L24.8178 25.432L24.8185 25.4322L24.8143 25.4453C24.5092 26.4124 23.986 27.2506 23.3171 27.9124L23.2925 27.954C23.2708 27.9912 23.2394 28.0457 23.2015 28.1141C23.1256 28.251 23.0235 28.4433 22.9187 28.6647C22.7072 29.112 22.4932 29.6611 22.4519 30.1095C22.4101 30.5646 22.5245 31.1517 22.6555 31.6367C22.7203 31.8767 22.7879 32.0873 22.8393 32.2378C22.85 32.2691 22.86 32.2978 22.8691 32.3236C23.2475 32.1428 23.5855 32.1562 23.8751 32.3248C24.1881 32.507 24.4174 32.8556 24.5881 33.2433C24.9 33.9517 25.05 34.8703 25.1192 35.4404C26.9892 35.0115 28.4331 34.5761 29.4155 34.2452C29.9203 34.0753 30.3032 33.9329 30.5595 33.8332C30.6876 33.7834 30.7841 33.7442 30.8484 33.7176C30.8643 33.711 30.8783 33.7052 30.8902 33.7002C30.9017 33.6707 30.9175 33.6294 30.9367 33.577C30.9793 33.4603 31.0386 33.2886 31.1047 33.0702C31.2368 32.6333 31.3955 32.0102 31.5013 31.2674C31.7131 29.7804 31.7116 27.8234 30.87 25.9202C30.734 25.6126 30.564 25.2965 30.3797 24.954C29.6678 23.6305 28.7433 21.9116 28.7433 18.7548C28.7433 16.4547 27.6269 14.5177 25.9833 13.1522C24.3383 11.7854 22.1715 10.9974 20.0905 10.9974C18.9528 10.9974 18.0382 11.1278 17.303 11.5719C16.5724 12.0132 15.9971 12.7784 15.5698 14.0968C15.5264 14.231 15.3827 14.313 15.2423 14.2674C14.3914 13.9914 13.1015 14.27 12.0126 14.9809C10.9285 15.6886 10.0866 16.797 10.0866 18.133C10.0866 19.2929 10.2852 20.0766 10.4789 20.8398L10.4789 20.8399C10.7134 21.7639 10.9399 22.6563 10.7801 24.1103C10.7268 24.5953 10.6184 24.9391 10.4669 25.2243C10.3179 25.5048 10.13 25.722 9.93201 25.9508L9.92748 25.9561C9.4558 26.5014 9.24113 26.9499 9.17182 27.3445C9.10268 27.7381 9.17507 28.0951 9.30963 28.4655C9.37725 28.6517 9.45951 28.8385 9.54669 29.0354L9.55427 29.0525C9.63857 29.2428 9.72683 29.4422 9.80616 29.6519C9.97026 30.0859 10.0983 30.5698 10.0856 31.1433C10.0748 31.6302 9.98848 31.9639 9.8594 32.2163C9.73176 32.4659 9.56701 32.6255 9.42332 32.7648L9.41945 32.7685C9.28839 32.8955 9.1794 33.0024 9.09871 33.1523C9.02661 33.2862 8.97314 33.4629 8.96417 33.7283C10.7694 34.802 12.556 35.2457 13.8977 35.4202C14.5771 35.5086 15.1417 35.5279 15.5355 35.5251C15.7324 35.5237 15.8866 35.5168 15.991 35.5103Z" fill="#FC909F" stroke="black" stroke-width="0.287356"/>
<path d="M24.9245 21.4042C25.0997 21.3465 25.2888 21.3158 25.4824 21.3158C26.2714 21.3158 26.911 21.8045 26.8358 22.7068C26.7575 23.6466 26.1962 23.985 25.4072 23.985C25.3194 23.985 25.2335 23.9773 25.1501 23.9625C25.059 23.9464 24.971 23.9219 24.8869 23.8898" stroke="black" stroke-width="0.601504"/>
<path d="M24.8493 23.8749C25.0207 23.9458 25.2093 23.985 25.4072 23.985C26.1962 23.985 26.7575 23.6466 26.8358 22.7068C26.911 21.8045 26.2714 21.3158 25.4824 21.3158C25.2465 21.3158 25.0172 21.3614 24.8117 21.4458L24.8493 23.8749Z" fill="#77311D"/>
<path d="M25.15 21.9549C25.4508 21.8171 26.1124 21.7444 26.353 22.5564" stroke="black" stroke-width="0.300752"/>
<path d="M25.9395 21.9924C25.7765 22.1303 25.4658 22.5563 25.5259 23.1578" stroke="black" stroke-width="0.300752"/>
<path d="M9.97243 36.6438H30.4919C30.4893 36.6385 30.4867 36.6332 30.4841 36.6278C30.1424 35.9319 29.512 34.648 28.6915 33.4993C28.2258 32.8473 27.7044 32.2471 27.1472 31.8249C26.5899 31.4027 26.0104 31.1684 25.4216 31.2199C24.2897 31.319 23.2815 31.9387 22.2694 32.5609C22.1734 32.6198 22.0775 32.6788 21.9814 32.7374C20.8923 33.4011 19.774 34.0173 18.5439 33.7477C18.1278 33.6564 17.8474 33.4612 17.6709 33.209C17.4969 32.9603 17.4344 32.6713 17.4235 32.4072C17.4127 32.1427 17.4532 31.8927 17.4953 31.7109C17.515 31.6259 17.5353 31.5547 17.5515 31.5025C17.279 31.2282 16.9904 31.0684 16.6925 30.9964C16.3696 30.9185 16.0243 30.941 15.6611 31.0484C14.9295 31.2648 14.1468 31.8193 13.3829 32.5322C11.9833 33.8384 10.6992 35.6258 9.97243 36.6438Z" fill="white" stroke="black" stroke-width="0.321376"/>
<defs>
<clipPath id="clip0">
<rect width="15.0376" height="24.0602" fill="white" transform="matrix(-1 0 0 1 27.5188 11.0902)"/>
</clipPath>
</defs>
</svg>
