<svg width="201" height="23" viewBox="0 0 201 23" fill="none" xmlns="http://www.w3.org/2000/svg">
<path d="M0.85 22C0.65 22 0.47 21.93 0.31 21.79C0.17 21.63 0.1 21.45 0.1 21.25V1.75C0.1 1.53 0.17 1.35 0.31 1.21C0.47 1.07 0.65 0.999999 0.85 0.999999H13.78C14 0.999999 14.18 1.07 14.32 1.21C14.46 1.35 14.53 1.53 14.53 1.75V4.75C14.53 4.97 14.46 5.16 14.32 5.32C14.18 5.46 14 5.53 13.78 5.53H5.5V21.25C5.5 21.47 5.42 21.65 5.26 21.79C5.12 21.93 4.94 22 4.72 22H0.85ZM25.3206 22.3C22.5006 22.3 20.2806 21.61 18.6606 20.23C17.0406 18.85 16.1806 16.82 16.0806 14.14C16.0606 13.56 16.0506 12.7 16.0506 11.56C16.0506 10.4 16.0606 9.53 16.0806 8.95C16.1806 6.31 17.0506 4.28 18.6906 2.86C20.3506 1.42 22.5606 0.699999 25.3206 0.699999C28.0806 0.699999 30.2906 1.42 31.9506 2.86C33.6106 4.28 34.4806 6.31 34.5606 8.95C34.6006 10.11 34.6206 10.98 34.6206 11.56C34.6206 12.12 34.6006 12.98 34.5606 14.14C34.4606 16.82 33.6006 18.85 31.9806 20.23C30.3606 21.61 28.1406 22.3 25.3206 22.3ZM25.3206 17.98C26.4206 17.98 27.2906 17.65 27.9306 16.99C28.5906 16.33 28.9406 15.32 28.9806 13.96C29.0206 12.8 29.0406 11.98 29.0406 11.5C29.0406 10.98 29.0206 10.16 28.9806 9.04C28.9406 7.68 28.5906 6.67 27.9306 6.01C27.2706 5.35 26.4006 5.02 25.3206 5.02C24.2406 5.02 23.3706 5.35 22.7106 6.01C22.0706 6.67 21.7206 7.68 21.6606 9.04C21.6406 9.6 21.6306 10.42 21.6306 11.5C21.6306 12.56 21.6406 13.38 21.6606 13.96C21.7206 15.32 22.0706 16.33 22.7106 16.99C23.3506 17.65 24.2206 17.98 25.3206 17.98ZM46.708 22.3C43.848 22.3 41.608 21.61 39.988 20.23C38.388 18.83 37.538 16.81 37.438 14.17C37.418 13.63 37.408 12.75 37.408 11.53C37.408 10.29 37.418 9.39 37.438 8.83C37.538 6.23 38.408 4.23 40.048 2.83C41.688 1.41 43.908 0.699999 46.708 0.699999C48.468 0.699999 50.048 0.999999 51.448 1.6C52.848 2.18 53.948 3.02 54.748 4.12C55.568 5.2 55.988 6.47 56.008 7.93V7.99C56.008 8.15 55.938 8.29 55.798 8.41C55.678 8.51 55.538 8.56 55.378 8.56H51.328C51.068 8.56 50.868 8.51 50.728 8.41C50.588 8.29 50.468 8.08 50.368 7.78C50.088 6.76 49.648 6.05 49.048 5.65C48.448 5.23 47.658 5.02 46.678 5.02C44.318 5.02 43.098 6.34 43.018 8.98C42.998 9.52 42.988 10.35 42.988 11.47C42.988 12.59 42.998 13.44 43.018 14.02C43.098 16.66 44.318 17.98 46.678 17.98C47.658 17.98 48.458 17.77 49.078 17.35C49.698 16.91 50.128 16.2 50.368 15.22C50.448 14.92 50.558 14.72 50.698 14.62C50.838 14.5 51.048 14.44 51.328 14.44H55.378C55.558 14.44 55.708 14.5 55.828 14.62C55.968 14.74 56.028 14.89 56.008 15.07C55.988 16.53 55.568 17.81 54.748 18.91C53.948 19.99 52.848 20.83 51.448 21.43C50.048 22.01 48.468 22.3 46.708 22.3Z" fill="#1D6CC7"/>
<path d="M88.3525 20.98C88.4125 21.06 88.4425 21.17 88.4425 21.31C88.4425 21.51 88.3725 21.68 88.2325 21.82C88.1125 21.94 87.9525 22 87.7525 22H83.3125C83.0325 22 82.8225 21.95 82.6825 21.85C82.5625 21.75 82.4225 21.61 82.2625 21.43L77.6725 13.78H75.6925V21.25C75.6925 21.47 75.6225 21.65 75.4825 21.79C75.3425 21.93 75.1625 22 74.9425 22H71.2525C71.0325 22 70.8525 21.93 70.7125 21.79C70.5725 21.65 70.5025 21.47 70.5025 21.25V13.78H68.5225L63.9325 21.43C63.7725 21.61 63.6225 21.75 63.4825 21.85C63.3625 21.95 63.1625 22 62.8825 22H58.4425C58.2425 22 58.0725 21.94 57.9325 21.82C57.8125 21.68 57.7525 21.51 57.7525 21.31C57.7525 21.17 57.7825 21.06 57.8425 20.98L63.9625 11.11L58.3825 1.99C58.3025 1.83 58.2625 1.71 58.2625 1.63C58.2625 1.45 58.3225 1.3 58.4425 1.18C58.5625 1.06 58.7125 0.999999 58.8925 0.999999H63.2125C63.7325 0.999999 64.1025 1.19 64.3225 1.57L68.7325 9.01L70.5025 8.98V1.75C70.5025 1.53 70.5725 1.35 70.7125 1.21C70.8725 1.07 71.0525 0.999999 71.2525 0.999999H74.9425C75.1625 0.999999 75.3425 1.07 75.4825 1.21C75.6225 1.35 75.6925 1.53 75.6925 1.75V8.98L77.4325 9.01L81.8425 1.57C82.0625 1.19 82.4325 0.999999 82.9525 0.999999H87.3025C87.4825 0.999999 87.6325 1.06 87.7525 1.18C87.8725 1.3 87.9325 1.45 87.9325 1.63C87.9325 1.71 87.8925 1.83 87.8125 1.99L82.2325 11.11L88.3525 20.98ZM90.0426 22C89.8826 22 89.7326 21.94 89.5926 21.82C89.4726 21.68 89.4126 21.53 89.4126 21.37C89.4126 21.25 89.4226 21.16 89.4426 21.1L96.4926 1.84C96.5526 1.6 96.6826 1.4 96.8826 1.24C97.0826 1.08 97.3426 0.999999 97.6626 0.999999H102.103C102.423 0.999999 102.683 1.08 102.883 1.24C103.083 1.4 103.213 1.6 103.273 1.84L110.293 21.1L110.353 21.37C110.353 21.53 110.283 21.68 110.143 21.82C110.023 21.94 109.873 22 109.693 22H106.003C105.523 22 105.203 21.79 105.043 21.37L103.873 18.31H95.8626L94.7226 21.37C94.5626 21.79 94.2326 22 93.7326 22H90.0426ZM102.673 13.99L99.8826 6.07L97.0926 13.99H102.673ZM126.787 22C126.587 22 126.407 21.93 126.247 21.79C126.107 21.63 126.037 21.45 126.037 21.25V5.8H120.457V8.53C120.457 11.91 120.237 14.55 119.797 16.45C119.357 18.33 118.547 19.72 117.367 20.62C116.207 21.5 114.517 21.96 112.297 22C112.077 22 111.887 21.93 111.727 21.79C111.567 21.63 111.487 21.44 111.487 21.22V18.07C111.487 17.65 111.737 17.39 112.237 17.29C113.317 17.11 114.087 16.23 114.547 14.65C115.007 13.05 115.237 10.78 115.237 7.84V1.75C115.237 1.53 115.307 1.35 115.447 1.21C115.607 1.07 115.797 0.999999 116.017 0.999999H130.657C130.877 0.999999 131.057 1.07 131.197 1.21C131.357 1.35 131.437 1.53 131.437 1.75V21.25C131.437 21.47 131.357 21.65 131.197 21.79C131.057 21.93 130.877 22 130.657 22H126.787ZM144.178 22.3C141.358 22.3 139.138 21.61 137.518 20.23C135.898 18.85 135.038 16.82 134.938 14.14C134.918 13.56 134.908 12.7 134.908 11.56C134.908 10.4 134.918 9.53 134.938 8.95C135.038 6.31 135.908 4.28 137.548 2.86C139.208 1.42 141.418 0.699999 144.178 0.699999C146.938 0.699999 149.148 1.42 150.808 2.86C152.468 4.28 153.338 6.31 153.418 8.95C153.458 10.11 153.478 10.98 153.478 11.56C153.478 12.12 153.458 12.98 153.418 14.14C153.318 16.82 152.458 18.85 150.838 20.23C149.218 21.61 146.998 22.3 144.178 22.3ZM144.178 17.98C145.278 17.98 146.148 17.65 146.788 16.99C147.448 16.33 147.798 15.32 147.838 13.96C147.878 12.8 147.898 11.98 147.898 11.5C147.898 10.98 147.878 10.16 147.838 9.04C147.798 7.68 147.448 6.67 146.788 6.01C146.128 5.35 145.258 5.02 144.178 5.02C143.098 5.02 142.228 5.35 141.568 6.01C140.928 6.67 140.578 7.68 140.518 9.04C140.498 9.6 140.488 10.42 140.488 11.5C140.488 12.56 140.498 13.38 140.518 13.96C140.578 15.32 140.928 16.33 141.568 16.99C142.208 17.65 143.078 17.98 144.178 17.98ZM157.705 22C157.505 22 157.325 21.93 157.165 21.79C157.025 21.63 156.955 21.45 156.955 21.25V1.75C156.955 1.53 157.025 1.35 157.165 1.21C157.325 1.07 157.505 0.999999 157.705 0.999999H172.105C172.325 0.999999 172.505 1.07 172.645 1.21C172.785 1.35 172.855 1.53 172.855 1.75V4.75C172.855 4.97 172.785 5.16 172.645 5.32C172.505 5.46 172.325 5.53 172.105 5.53H162.355V9.07H166.525C168.925 9.07 170.815 9.64 172.195 10.78C173.575 11.92 174.265 13.48 174.265 15.46C174.265 16.7 173.965 17.82 173.365 18.82C172.765 19.8 171.885 20.58 170.725 21.16C169.565 21.72 168.165 22 166.525 22H157.705ZM166.045 18.1C166.865 18.1 167.505 17.84 167.965 17.32C168.445 16.8 168.685 16.17 168.685 15.43C168.685 14.69 168.455 14.08 167.995 13.6C167.535 13.12 166.885 12.88 166.045 12.88H162.355V18.1H166.045ZM177.422 22C177.222 22 177.042 21.93 176.882 21.79C176.742 21.63 176.672 21.45 176.672 21.25V1.75C176.672 1.53 176.742 1.35 176.882 1.21C177.042 1.07 177.222 0.999999 177.422 0.999999H181.292C181.512 0.999999 181.692 1.07 181.832 1.21C181.992 1.35 182.072 1.53 182.072 1.75V8.2H184.892C187.492 8.2 189.492 8.78 190.892 9.94C192.292 11.08 192.992 12.77 192.992 15.01C192.992 17.13 192.282 18.83 190.862 20.11C189.462 21.37 187.472 22 184.892 22H177.422ZM196.022 22C195.822 22 195.642 21.93 195.482 21.79C195.342 21.63 195.272 21.45 195.272 21.25V1.75C195.272 1.53 195.342 1.35 195.482 1.21C195.642 1.07 195.822 0.999999 196.022 0.999999H200.042C200.262 0.999999 200.442 1.07 200.582 1.21C200.742 1.35 200.822 1.53 200.822 1.75V21.25C200.822 21.47 200.742 21.65 200.582 21.79C200.442 21.93 200.262 22 200.042 22H196.022ZM184.772 17.83C185.612 17.83 186.262 17.57 186.722 17.05C187.182 16.53 187.412 15.85 187.412 15.01C187.412 14.13 187.182 13.47 186.722 13.03C186.262 12.57 185.612 12.34 184.772 12.34H182.072V17.83H184.772Z" fill="#EB425B"/>
</svg>
